<?xml version="1.0" encoding="UTF-8"?>
<svg width="24px" height="24px" viewBox="0 0 24 24" version="1.1" xmlns="http://www.w3.org/2000/svg" xmlns:xlink="http://www.w3.org/1999/xlink">
    <title>alert-octagon</title>
    <defs>
        <path d="M16.14,1 C16.4052165,1 16.6595704,1.10535684 16.8471068,1.29289322 L22.7071068,7.15289322 C22.8946432,7.3404296 23,7.59478351 23,7.86 L23,16.14 C23,16.4052165 22.8946432,16.6595704 22.7071068,16.8471068 L16.8471068,22.7071068 C16.6595704,22.8946432 16.4052165,23 16.14,23 L7.86,23 C7.59478351,23 7.3404296,22.8946432 7.15289322,22.7071068 L1.29289322,16.8471068 C1.10535684,16.6595704 1,16.4052165 1,16.14 L1,7.86 C1,7.59478351 1.10535684,7.3404296 1.29289322,7.15289322 L7.15289322,1.29289322 C7.3404296,1.10535684 7.59478351,1 7.86,1 L16.14,1 Z M15.7257864,3 L8.27421356,3 L3,8.27421356 L3,15.7257864 L8.27421356,21 L15.7257864,21 L21,15.7257864 L21,8.27421356 L15.7257864,3 Z M11.2928932,14.2928932 C11.6834175,13.9023689 12.3165825,13.9023689 12.7071068,14.2928932 C13.0976311,14.6834175 13.0976311,15.3165825 12.7071068,15.7071068 C12.3165825,16.0976311 11.6834175,16.0976311 11.2928932,15.7071068 C10.9023689,15.3165825 10.9023689,14.6834175 11.2928932,14.2928932 Z M12,7 C12.5522847,7 13,7.44771525 13,8 L13,8 L13,12 C13,12.5522847 12.5522847,13 12,13 C11.4477153,13 11,12.5522847 11,12 L11,12 L11,8 C11,7.44771525 11.4477153,7 12,7 Z" id="path-1"></path>
    </defs>
    <g id="Symbols" stroke="none" stroke-width="1" fill="none" fill-rule="evenodd">
        <g id="alert-octagon">
            <mask id="mask-2" fill="white">
                <use xlink:href="#path-1"></use>
            </mask>
            <use id="Combined-Shape" fill="#FF0000" xlink:href="#path-1"></use>
        </g>
    </g>
</svg>
