<?xml version="1.0" encoding="UTF-8"?>
<svg width="202px" height="76px" viewBox="0 0 202 76" version="1.1" xmlns="http://www.w3.org/2000/svg" xmlns:xlink="http://www.w3.org/1999/xlink">
    <title>LOGO</title>
    <g id="Dashboard-UI" stroke="none" stroke-width="1" fill="none" fill-rule="evenodd">
        <g id="Single-Market-Settings" transform="translate(-83.000000, -39.000000)">
            <g id="LOGO" transform="translate(83.000000, 39.000000)">
                <path d="M52.9238779,14.2329938 L60.5282571,14.2329938 L60.5282571,58.4459336 C60.5282571,67.0875536 54.2893423,74.7823915 45.6653565,75.8631523 C42.8928814,76.2162968 40.0756003,75.88341 37.4635866,74.8940404 C37.3782451,74.8627787 37.4141783,74.7288001 37.5040115,74.7288001 C37.5938447,74.7288001 37.813936,74.7288001 37.9531774,74.7288001 L37.9531774,74.7288001 C37.6522363,74.7288001 37.3512951,74.7288001 37.0548456,74.7288001 L37.0189123,74.7288001 C30.6321303,72.1158083 26.4585032,65.9335044 26.4454213,59.0667011 L26.4454213,40.5865855 C26.4443105,40.5645028 26.4522798,40.5428894 26.4675781,40.5268336 C26.4828764,40.5107778 26.5041521,40.5016982 26.5263962,40.5017324 L33.9825506,40.5017324 C34.0296834,40.5017324 34.0678921,40.5397224 34.0678921,40.5865855 L34.0678921,58.6558334 C34.0678921,63.4611994 37.5264698,67.7797764 42.323562,68.3603504 C45.0080259,68.6933728 47.7070854,67.864346 49.7349032,66.0839277 C51.7627211,64.3035095 52.9240807,61.7430993 52.9238779,59.0533033 L52.9238779,59.0533033 L52.9238779,14.2329938 Z M86.8538723,17.4172187 C85.7623991,8.84258795 78.0232701,2.63491257 69.336401,2.63491257 L43.4779184,2.63491257 L43.4779184,0 L43.4150352,0 L37.2794286,6.37291566 C37.2524332,6.40696724 37.2524332,6.45497887 37.2794286,6.48903045 L43.4150352,12.8619461 L43.4779184,12.8619461 L43.4779184,10.2091697 L69.9787083,10.2091697 C72.6840906,10.2100889 75.258843,11.3659573 77.0486689,13.3830455 C78.8384947,15.4001338 79.6710752,18.0842427 79.3348346,20.753286 C78.7509189,25.5229243 74.3940094,28.9617085 69.5789506,28.9617085 L64.6381254,28.9617085 C64.5909926,28.9617085 64.5527838,28.9996986 64.5527838,29.0465616 L64.5527838,36.4377147 C64.5527838,36.4845778 64.5909926,36.5225678 64.6381254,36.5225678 L69.9831999,36.5225678 C76.8895281,36.5096851 83.107417,32.3599436 85.7354491,26.0097133 C85.737378,25.9978813 85.737378,25.9858176 85.7354491,25.9739856 L85.7354491,25.9739856 C85.7354491,25.8489389 85.7354491,25.7372901 85.7354491,25.6122434 L85.7354491,25.0361354 C85.7354491,25.2058416 85.7354491,25.3666159 85.7354491,25.5452541 C85.7354491,25.6345732 85.8657072,25.6703008 85.8971489,25.5854477 C86.8927619,22.9838087 87.2215496,20.1767138 86.8538723,17.4172187 Z M43.4779184,39.1708782 L43.5408016,39.1708782 L49.6719166,32.7979626 C49.6989119,32.763911 49.6989119,32.7158994 49.6719166,32.6818478 L43.5408016,26.3133981 L43.4779184,26.3133981 L43.4779184,28.9617085 L17.0310284,28.9617085 C14.3265334,28.9606296 11.7526062,27.8053637 9.96294104,25.7893109 C8.17327591,23.7732581 7.34005959,21.0903863 7.67490208,18.4220582 C8.25881779,13.6524199 12.6157273,10.2091697 17.4307861,10.2091697 L33.8073759,10.2091697 C33.8295857,10.2103985 33.8513235,10.2024747 33.8674717,10.187264 C33.8836199,10.1720533 33.8927518,10.1508994 33.8927174,10.1287826 L33.8927174,2.73316355 C33.8927174,2.68630047 33.8545087,2.64831043 33.8073759,2.64831043 L17.0310284,2.64831043 C10.1247002,2.66119312 3.90681131,6.81093461 1.27877923,13.161165 C1.27659944,13.1744752 1.27659944,13.1880484 1.27877923,13.2013586 C1.27877923,13.5229072 1.27877923,13.831058 1.27877923,14.1392088 C1.27877923,13.9695026 1.27877923,13.8042623 1.27877923,13.6300901 C1.27877923,13.5363051 1.14852111,13.5005775 1.11707949,13.5898965 C0.118129555,16.1860026 -0.218288452,18.9877624 0.137897763,21.7447276 C1.22937097,30.3148924 8.98197493,36.5225678 17.6598607,36.5225678 L43.4779184,36.5225678 L43.4779184,39.1708782 Z" id="Shape" fill="#0FFF00" fill-rule="nonzero"></path>
                <g id="Group-2" transform="translate(104.000000, 9.000000)" fill="#FFFFFF">
                    <path d="M5.70767869,33.9141962 L5.70767869,3.60952323 C5.70767869,3.56472583 5.67163052,3.52841035 5.62716284,3.52841035 L0.084988946,3.52841035 C0.039013577,3.52614704 0.0022466513,3.48910749 0,3.4427912 L0,0.0856192596 C0.0022466513,0.0393029771 0.039013577,0.00226341984 0.084988946,1.09325498e-07 L15.8750405,1.09325498e-07 C15.9210159,0.00226341984 15.9577828,0.0393029771 15.9600294,0.0856192596 L15.9600294,3.4427912 C15.9577828,3.48910749 15.9210159,3.52614704 15.8750405,3.52841035 L10.5073176,3.52841035 C10.4851995,3.52717052 10.4635515,3.53516578 10.44747,3.55051384 C10.4313886,3.56586191 10.4222944,3.58720675 10.4223286,3.60952323 L10.4223286,33.9141962 C10.4223286,33.9614823 10.3842778,33.9998153 10.3373397,33.9998153 L5.79266763,33.9998153 C5.74669226,33.997552 5.70992534,33.9605124 5.70767869,33.9141962 L5.70767869,33.9141962 Z M19.2075018,33.9141962 L19.2075018,0.0856192596 C19.2075018,0.0383331086 19.2455526,1.09325498e-07 19.2924907,1.09325498e-07 L26.5389167,1.09325498e-07 C29.0378899,1.09325498e-07 31.0179832,0.386037331 32.4791967,1.15811177 C33.9068601,1.8885383 35.0204029,3.119313 35.6103684,4.61892795 C36.2785582,6.45869632 36.5883835,8.41099296 36.5228813,10.3689298 L36.5228813,22.873832 C36.5777037,24.9436796 36.2594361,27.0063838 35.5835297,28.9618043 C35.0262226,30.5281895 33.9526165,31.8546997 32.5418201,32.7200343 C31.1551584,33.5702175 29.2794374,33.995309 26.9146573,33.995309 L19.3103831,33.995309 C19.2857115,34.0006736 19.2599493,33.9947135 19.2400728,33.9790426 C19.2201963,33.9633718 19.2082621,33.9396116 19.2075018,33.9141962 L19.2075018,33.9141962 Z M23.9176786,30.5119615 C23.9164479,30.5342435 23.9243843,30.5560521 23.9396194,30.5722528 C23.9548545,30.5884536 23.9760423,30.5975807 23.9981945,30.5975807 L26.5836477,30.5975807 C28.3072831,30.5975807 29.5284401,30.2626145 30.2471186,29.5926822 C31.0248222,28.8065045 31.4922263,27.7622624 31.5622107,26.6545935 C31.7276712,25.1071863 31.8038421,23.5514088 31.7903389,21.9951092 L31.7903389,10.9547451 C31.8176438,9.5201436 31.7052789,8.08630059 31.4548562,6.67378756 C31.3132156,5.70914883 30.7864186,4.84472112 29.9966248,4.28095762 C29.2481257,3.78226362 28.0687177,3.53141454 26.4584008,3.52841035 L23.9981945,3.52841035 C23.9768404,3.52841035 23.9563608,3.53695615 23.9412612,3.55216777 C23.9261615,3.56737938 23.9176786,3.58801076 23.9176786,3.60952323 L23.9176786,30.5119615 Z M41.1659615,33.9141962 L41.1659615,0.0856192596 C41.1659615,0.0400384407 41.2012948,0.00239905832 41.2464774,1.09325498e-07 L54.1603241,1.09325498e-07 C54.2072622,1.09325498e-07 54.245313,0.0383331086 54.245313,0.0856192596 L54.245313,3.4427912 C54.245313,3.49007736 54.2072622,3.52841035 54.1603241,3.52841035 L45.9566543,3.52841035 C45.9345362,3.52717052 45.9128882,3.53516578 45.8968067,3.55051384 C45.8807252,3.56586191 45.8716311,3.58720675 45.8716653,3.60952323 L45.8716653,14.6904438 C45.8716653,14.7377299 45.9097162,14.7760629 45.9566543,14.7760629 L52.5768458,14.7760629 C52.5997636,14.7747403 52.6221521,14.7833353 52.638384,14.7996876 C52.6546159,14.8160398 52.6631477,14.8385944 52.6618348,14.8616821 L52.6618348,18.0476157 C52.6631477,18.0707035 52.6546159,18.093258 52.638384,18.1096102 C52.6221521,18.1259625 52.5997636,18.1345575 52.5768458,18.1332349 L45.9566543,18.1332349 C45.9337365,18.1319123 45.911348,18.1405073 45.8951161,18.1568595 C45.8788842,18.1732118 45.8703524,18.1957663 45.8716653,18.218854 L45.8716653,30.5119615 C45.8703524,30.5350492 45.8788842,30.5576038 45.8951161,30.573956 C45.911348,30.5903083 45.9337365,30.5989033 45.9566543,30.5975807 L54.245313,30.5975807 C54.2912884,30.599844 54.3280553,30.6368835 54.330302,30.6831998 L54.330302,33.9141962 C54.3280553,33.9605124 54.2912884,33.997552 54.245313,33.9998153 L41.2464774,33.9998153 C41.2012948,33.9974164 41.1659615,33.959777 41.1659615,33.9141962 L41.1659615,33.9141962 Z M56.0837581,33.8826523 L63.066271,16.2360948 C63.0749757,16.2144167 63.0749757,16.1901788 63.066271,16.1685007 L56.2045319,0.121669428 C56.1923896,0.0953242067 56.1943341,0.0645739107 56.2096966,0.0399938007 C56.225059,0.0154136906 56.2517441,0.000356348725 56.2805746,0 L60.4718716,0 C60.5060412,0 60.5365245,0.0216210514 60.5479144,0.0540753621 L65.598047,11.8154428 C65.6093097,11.8480464 65.6398224,11.8698963 65.6740897,11.8698963 C65.708357,11.8698963 65.7388698,11.8480464 65.7501325,11.8154428 L70.3216431,0.0540753621 C70.3356541,0.0217210235 70.3671245,0.000585195965 70.402159,0 L74.593456,0 C74.6222865,0.000356348725 74.6489716,0.0154136906 74.664334,0.0399938007 C74.6796965,0.0645739107 74.6816409,0.0953242067 74.6694987,0.121669428 L67.6333086,16.5470275 C67.6246039,16.5687056 67.6246039,16.5929434 67.6333086,16.6146215 L74.9915621,33.8826523 C75.004302,33.9084331 75.0025174,33.9390861 74.9868733,33.9631898 C74.9712292,33.9872935 74.9440715,34.0012334 74.9155193,33.999914 L70.7242224,33.999914 C70.6900528,33.999914 70.6595694,33.9781944 70.6481796,33.9457401 L65.2446719,21.37775 C65.2313732,21.3460643 65.200541,21.3254743 65.1663926,21.3254743 C65.1322442,21.3254743 65.101412,21.3460643 65.0881133,21.37775 L60.4316137,33.927715 C60.4206309,33.961134 60.3904627,33.9843749 60.3555709,33.9862965 L56.1598009,33.9862965 C56.1353727,33.9842688 56.113003,33.971715 56.0984339,33.9518578 C56.0838648,33.9320005 56.0785152,33.9067734 56.0837581,33.8826523 L56.0837581,33.8826523 Z" id="Shape" fill-rule="nonzero"></path>
                    <text id="Dashboard" opacity="0.596237909" font-family="DMMono-Regular, DM Mono" font-size="18" font-weight="normal">
                        <tspan x="0" y="54">Dashboard</tspan>
                    </text>
                </g>
            </g>
        </g>
    </g>
</svg>