<svg enable-background="new 0 0 2000 2000" viewBox="0 0 2000 2000" xmlns="http://www.w3.org/2000/svg"><path d="m1408.3 712.1c26 36.5 47 76.4 62.6 118.5l55.7-18.1c-17.6-48.3-41.9-94-71.8-135.6z" fill="#00c3ff"/><path d="m1027.5 448.8c-14.8-.5-29.9-.5-44.7 0l4.1 58.2c22.5-.8 44.9-.3 67.2 1.8 22.2 2 44.4 5.6 66.4 10.7l14.8-56.4c-25-5.9-50.3-10-75.8-12.3-10.5-1-21.5-1.7-32-2z" fill="#00c3ff"/><path d="m482.3 1256.6c-23.2-47.5-40.1-97.8-49.8-149.7l-61 9.7c10.7 58.7 29.6 115.7 56.2 169.1z" fill="#00c3ff"/><path d="m450.9 669.5 54.1 30.1c27.1-45.5 60-86.8 98.3-123.3l-41.4-46c-43.4 41.1-80.7 87.8-111 139.2z" fill="#00c3ff"/><path d="m374.2 868.4 60.8 10.7c10.7-51.8 28.6-101.9 52.9-148.9l-54.1-29.9c-27.6 53.2-47.6 109.6-59.6 168.1z" fill="#00c3ff"/><path d="m770.3 396.7 24.3 56.7c49.3-19.4 100.9-31.9 153.5-37l-4.3-61.5c-59.6 5.6-117.8 19.6-173.5 41.8z" fill="#00c3ff"/><path d="m588 506.5 41.4 46c40.4-34.2 85-62.8 133.1-85.3l-24.3-56.7c-54.4 24.8-105 57.2-150.2 96z" fill="#00c3ff"/><path d="m1503.8 1415.2-48.3-38.6c-34.2 40.4-73.8 75.8-117.5 105.7l33.2 52.4c49.6-33.4 94.3-73.5 132.6-119.5z" fill="#00c3ff"/><path d="m751.4 1525.3c-47.5-23.2-91.7-52.9-131.3-88.1l-42.1 45.2c44.4 39.8 94.5 73 148.1 99.1z" fill="#00c3ff"/><path d="m1652.7 1059.2c7.9-83.3-.5-167.3-24.8-247.2l-58.7 19.4c33.7 113.4 32.4 234.2-3.3 346.8l58.2 20.7c14.5-45.2 24.2-92.2 28.6-139.7z" fill="#00c3ff"/><path d="m1292.1 1470.4-31.2-49c-38.6 23-79.9 40.9-123.3 52.9l13.8 56.7c49.5-13.9 96.8-34.1 140.7-60.6z" fill="#00c3ff"/><path d="m526.7 1060.7c-4.3-36.3-4.9-73-1.3-109.6.8-8.9 1.8-16.6 3.1-24.5l-57.5-10.2c-1.3 9.7-2.6 19.4-3.6 29.4-3.8 41.1-3.3 82.7 1.8 123.9z" fill="#00c3ff"/><path d="m1174.6 437.3c50.8 14.8 99.3 36.8 144 64.9l34.5-51.6c-50.6-31.9-105.2-56.4-162.7-73.3z" fill="#00c3ff"/><path d="m923.3 1640.4 5.9-61.5c-49.8-6.6-98.6-19.9-145.1-39.1l-25.8 56.7c52.6 21.7 108.3 36.5 165 43.9z" fill="#00c3ff"/><path d="m620.7 1389.9 40.1-42.4c-31.7-31.9-59-67.7-81.2-106.7l-51.8 27.3c25.2 44.4 56.6 85.5 92.9 121.8z" fill="#00c3ff"/><path d="m1382.2 470.5-34.7 51.6c43.2 30.6 81.7 67.2 115.2 108.3l49.5-37.8c-37.5-46.7-81.2-87.6-130-122.1z" fill="#00c3ff"/><path d="m1441.5 1327.3c30.6-41.1 55.7-86.1 74.3-134.1l-54.9-19.7c-16.3 41.9-38.3 81.5-65.1 117.5z" fill="#00c3ff"/><g fill="#7ee0ff"><path d="m1487.2 858.5-55.2 18.4c15.3 52.9 20.4 108.3 15.3 162.9-2.8 30.4-8.7 60.5-17.6 89.9l54.9 19.4c10.5-33.7 17.6-68.7 20.9-103.9 6-62.9-.4-126.2-18.3-186.7z"/><path d="m937.1 1492.8 5.4-58c-34-5.1-67.4-14-99.3-26.8l-24 52.9c37.7 15.3 77.3 26.1 117.9 31.9z"/><path d="m1337 875.3 52.1-17.6c-12.5-32.9-29.1-64.4-49.5-93.5l-43.7 33.2c16.9 24.3 30.7 50.3 41.1 77.9z"/><path d="m1021.9 593.1h-28.6l3.8 54.7c29.4-.8 58.5 1.8 87.3 8.2l14-52.9c-17.4-3.8-34.7-6.6-52.4-8.2-7.8-.8-15.9-1.3-24.1-1.8z"/><path d="m580.3 741.5 51.1 28.3c19.2-31.7 42.1-60.5 68.7-86.3l-39.3-43.4c-31.2 30.1-58.2 64.1-80.5 101.4z"/><path d="m1137.8 577.3c35.2 10.7 69.2 26 100.6 45.2l32.4-48.5c-36.8-22.7-76.6-40.4-118-52.9z"/><path d="m1347.5 717.7 46.2-35.2c-27.3-33.7-59.2-63.6-94.2-88.9l-32.4 48.5c30.1 21.8 56.9 47 80.4 75.6z"/><path d="m1285.2 1203.2 42.9 34.2c20.9-28.6 38.1-59.5 51.3-92.4l-51.6-18.4c-11.2 27.1-25.5 52.9-42.6 76.6z"/><path d="m719.3 1332.2-39.8 42.4c32.7 28.6 68.7 52.9 107.8 72l24-52.9c-33.3-16.3-64.2-37.2-92-61.5z"/><path d="m666.4 1038.8c-2.6-24.8-2.8-49.8-.5-74.6.5-4.3 1-8.9 1.5-13l-53.9-9.7c-.8 5.9-1.5 11.7-2 17.6-2.8 29.4-2.3 58.7.8 88.1z"/><path d="m575.5 1084.2-57.7 8.9c8.2 42.6 22 84.3 40.9 123.3l51.6-27.3c-16.2-33.4-27.7-68.6-34.8-104.9z"/><path d="m1260.2 1360.8 31.4 49c35.8-24.5 68.2-53.6 96.3-86.3l-45.7-36.3c-24.1 27.9-51.6 52.7-82 73.6z"/><path d="m614.3 800.5-50.8-28.1c-19.9 38.6-34.5 79.7-43.4 122.1l57.5 10.2c7.6-36.3 19.8-71.3 36.7-104.2z"/><path d="m1104.1 1336.8 12.8 52.9c34-9.7 66.7-23.5 97.3-41.4l-29.6-46.2c-25.3 14.5-52.4 26.3-80.5 34.7z"/><path d="m704.2 1174.9-48.5 25.3c17.6 30.6 39.3 58.7 64.1 84l37.8-40.1c-20.5-21-38.3-44.2-53.4-69.2z"/><path d="m992 1439.5c-4.9 0-9.7-.5-14.6-1l-5.4 58c45.7 3.3 91.7.3 136.4-8.9l-13.5-56.7c-33.7 7-68.4 9.8-102.9 8.6z"/><path d="m687.1 616.6 39.1 43.2c28.3-23.8 59.5-43.7 93-59.5l-23-53.6c-39.4 18.3-75.9 41.8-109.1 69.9z"/><path d="m828.6 532.8 23 53.6c34.5-13.3 70.5-22.2 107.3-26.3l-4.3-58.2c-43.3 4.9-85.7 15.1-126 30.9z"/></g><path d="m975.7 1644.8c54.9 1.8 109.8-2.8 164-13.3l-12.8-59.5c-46.7 9.7-94.5 13.5-142.5 11.7-7.7 0-13.3-1-20.9-1.5l-5.4 62.3c5.9.3 11.7.3 17.6 0z" fill="#00c3ff"/><path d="m1000.3 36.6h497.9v329.9h-497.9z" fill="none"/></svg>