<?xml version="1.0" encoding="utf-8"?>
<!-- Generator: Adobe Illustrator 21.0.0, SVG Export Plug-In . SVG Version: 6.00 Build 0)  -->
<svg version="1.1" id="Layer_1" xmlns="http://www.w3.org/2000/svg" xmlns:xlink="http://www.w3.org/1999/xlink" x="0px" y="0px"
	 viewBox="0 0 2000 2000" style="enable-background:new 0 0 2000 2000;" xml:space="preserve">
<style type="text/css">
	.st0{fill:#00C3FF;}
	.st1{fill:#7EE0FF;}
	.st2{fill:none;}
</style>
<title>blks_logo_emblem_dark</title>
<g>
	<path class="st0" d="M1408.3,712.1c26,36.5,47,76.4,62.6,118.5l55.7-18.1c-17.6-48.3-41.9-94-71.8-135.6L1408.3,712.1z"/>
	<path class="st0" d="M1027.5,448.8c-14.8-0.5-29.9-0.5-44.7,0l4.1,58.2c22.5-0.8,44.9-0.3,67.2,1.8c22.2,2,44.4,5.6,66.4,10.7
		l14.8-56.4c-25-5.9-50.3-10-75.8-12.3C1049,449.8,1038,449.1,1027.5,448.8z"/>
	<path class="st0" d="M482.3,1256.6c-23.2-47.5-40.1-97.8-49.8-149.7l-61,9.7c10.7,58.7,29.6,115.7,56.2,169.1L482.3,1256.6z"/>
	<path class="st0" d="M450.9,669.5l54.1,30.1c27.1-45.5,60-86.8,98.3-123.3l-41.4-46C518.5,571.4,481.2,618.1,450.9,669.5z"/>
	<path class="st0" d="M374.2,868.4l60.8,10.7c10.7-51.8,28.6-101.9,52.9-148.9l-54.1-29.9C406.2,753.5,386.2,809.9,374.2,868.4z"/>
	<path class="st0" d="M770.3,396.7l24.3,56.7c49.3-19.4,100.9-31.9,153.5-37l-4.3-61.5C884.2,360.5,826,374.5,770.3,396.7z"/>
	<path class="st0" d="M588,506.5l41.4,46c40.4-34.2,85-62.8,133.1-85.3l-24.3-56.7C683.8,435.3,633.2,467.7,588,506.5z"/>
	<path class="st0" d="M1503.8,1415.2l-48.3-38.6c-34.2,40.4-73.8,75.8-117.5,105.7l33.2,52.4
		C1420.8,1501.3,1465.5,1461.2,1503.8,1415.2z"/>
	<path class="st0" d="M751.4,1525.3c-47.5-23.2-91.7-52.9-131.3-88.1l-42.1,45.2c44.4,39.8,94.5,73,148.1,99.1L751.4,1525.3z"/>
	<path class="st0" d="M1652.7,1059.2c7.9-83.3-0.5-167.3-24.8-247.2l-58.7,19.4c33.7,113.4,32.4,234.2-3.3,346.8l58.2,20.7
		C1638.6,1153.7,1648.3,1106.7,1652.7,1059.2z"/>
	<path class="st0" d="M1292.1,1470.4l-31.2-49c-38.6,23-79.9,40.9-123.3,52.9l13.8,56.7C1200.9,1517.1,1248.2,1496.9,1292.1,1470.4z
		"/>
	<path class="st0" d="M526.7,1060.7c-4.3-36.3-4.9-73-1.3-109.6c0.8-8.9,1.8-16.6,3.1-24.5L471,916.4c-1.3,9.7-2.6,19.4-3.6,29.4
		c-3.8,41.1-3.3,82.7,1.8,123.9L526.7,1060.7z"/>
	<path class="st0" d="M1174.6,437.3c50.8,14.8,99.3,36.8,144,64.9l34.5-51.6c-50.6-31.9-105.2-56.4-162.7-73.3L1174.6,437.3z"/>
	<path class="st0" d="M923.3,1640.4l5.9-61.5c-49.8-6.6-98.6-19.9-145.1-39.1l-25.8,56.7C810.9,1618.2,866.6,1633,923.3,1640.4z"/>
	<path class="st0" d="M620.7,1389.9l40.1-42.4c-31.7-31.9-59-67.7-81.2-106.7l-51.8,27.3C553,1312.5,584.4,1353.6,620.7,1389.9z"/>
	<path class="st0" d="M1382.2,470.5l-34.7,51.6c43.2,30.6,81.7,67.2,115.2,108.3l49.5-37.8C1474.7,545.9,1431,505,1382.2,470.5z"/>
	<path class="st0" d="M1441.5,1327.3c30.6-41.1,55.7-86.1,74.3-134.1l-54.9-19.7c-16.3,41.9-38.3,81.5-65.1,117.5L1441.5,1327.3z"/>
	<path class="st1" d="M1487.2,858.5l-55.2,18.4c15.3,52.9,20.4,108.3,15.3,162.9c-2.8,30.4-8.7,60.5-17.6,89.9l54.9,19.4
		c10.5-33.7,17.6-68.7,20.9-103.9C1511.5,982.3,1505.1,919,1487.2,858.5z"/>
	<path class="st1" d="M937.1,1492.8l5.4-58c-34-5.1-67.4-14-99.3-26.8l-24,52.9C856.9,1476.2,896.5,1487,937.1,1492.8z"/>
	<path class="st1" d="M1337,875.3l52.1-17.6c-12.5-32.9-29.1-64.4-49.5-93.5l-43.7,33.2C1312.8,821.7,1326.6,847.7,1337,875.3z"/>
	<path class="st1" d="M1021.9,593.1h-28.6l3.8,54.7c29.4-0.8,58.5,1.8,87.3,8.2l14-52.9c-17.4-3.8-34.7-6.6-52.4-8.2
		C1038.2,594.1,1030.1,593.6,1021.9,593.1z"/>
	<path class="st1" d="M580.3,741.5l51.1,28.3c19.2-31.7,42.1-60.5,68.7-86.3l-39.3-43.4C629.6,670.2,602.6,704.2,580.3,741.5z"/>
	<path class="st1" d="M1137.8,577.3c35.2,10.7,69.2,26,100.6,45.2l32.4-48.5c-36.8-22.7-76.6-40.4-118-52.9L1137.8,577.3z"/>
	<path class="st1" d="M1347.5,717.7l46.2-35.2c-27.3-33.7-59.2-63.6-94.2-88.9l-32.4,48.5C1297.2,663.9,1324,689.1,1347.5,717.7z"/>
	<path class="st1" d="M1285.2,1203.2l42.9,34.2c20.9-28.6,38.1-59.5,51.3-92.4l-51.6-18.4
		C1316.6,1153.7,1302.3,1179.5,1285.2,1203.2z"/>
	<path class="st1" d="M719.3,1332.2l-39.8,42.4c32.7,28.6,68.7,52.9,107.8,72l24-52.9C778,1377.4,747.1,1356.5,719.3,1332.2z"/>
	<path class="st1" d="M666.4,1038.8c-2.6-24.8-2.8-49.8-0.5-74.6c0.5-4.3,1-8.9,1.5-13l-53.9-9.7c-0.8,5.9-1.5,11.7-2,17.6
		c-2.8,29.4-2.3,58.7,0.8,88.1L666.4,1038.8z"/>
	<path class="st1" d="M575.5,1084.2l-57.7,8.9c8.2,42.6,22,84.3,40.9,123.3l51.6-27.3C594.1,1155.7,582.6,1120.5,575.5,1084.2z"/>
	<path class="st1" d="M1260.2,1360.8l31.4,49c35.8-24.5,68.2-53.6,96.3-86.3l-45.7-36.3C1318.1,1315.1,1290.6,1339.9,1260.2,1360.8z
		"/>
	<path class="st1" d="M614.3,800.5l-50.8-28.1c-19.9,38.6-34.5,79.7-43.4,122.1l57.5,10.2C585.2,868.4,597.4,833.4,614.3,800.5z"/>
	<path class="st1" d="M1104.1,1336.8l12.8,52.9c34-9.7,66.7-23.5,97.3-41.4l-29.6-46.2C1159.3,1316.6,1132.2,1328.4,1104.1,1336.8z"
		/>
	<path class="st1" d="M704.2,1174.9l-48.5,25.3c17.6,30.6,39.3,58.7,64.1,84l37.8-40.1C737.1,1223.1,719.3,1199.9,704.2,1174.9z"/>
	<path class="st1" d="M992,1439.5c-4.9,0-9.7-0.5-14.6-1l-5.4,58c45.7,3.3,91.7,0.3,136.4-8.9l-13.5-56.7
		C1061.2,1437.9,1026.5,1440.7,992,1439.5z"/>
	<path class="st1" d="M687.1,616.6l39.1,43.2c28.3-23.8,59.5-43.7,93-59.5l-23-53.6C756.8,565,720.3,588.5,687.1,616.6z"/>
	<path class="st1" d="M828.6,532.8l23,53.6c34.5-13.3,70.5-22.2,107.3-26.3l-4.3-58.2C911.3,506.8,868.9,517,828.6,532.8z"/>
	<path class="st0" d="M975.7,1644.8c54.9,1.8,109.8-2.8,164-13.3l-12.8-59.5c-46.7,9.7-94.5,13.5-142.5,11.7c-7.7,0-13.3-1-20.9-1.5
		l-5.4,62.3c5.9,0.3,11.7,0.3,17.6,0V1644.8z"/>
</g>
<rect x="1000.3" y="36.6" class="st2" width="497.9" height="329.9"/>
</svg>
