<svg height="65" viewBox="0 0 64 65" width="64" xmlns="http://www.w3.org/2000/svg"><g fill="none" fill-rule="evenodd"><circle cx="31.7" cy="32.5" fill="#f89b2b" fill-rule="nonzero" r="31.7"/><path d="m30.9 12.3c1 .3 1.9.5 2.9.7.3.1.3.2.2.4l-.3 1.215625-.6 2.46875c-.1.409375-.2.815625-.3 1.215625 0 .1 0 .2-.1.4.8.2 1.7.4 2.5.6.05 0 .1-.05.15-.1125l.1-.1305556c.0166667-.0208333.0333333-.0402777.05-.0569444.3-1.3.6-2.5 1-3.8l.3-1.2c0-.2.1-.3.3-.2 1 .3 2 .5 3.1.8.1 0 .1.1.2.1-.3 1.3-.6 2.5-.9 3.7-.1.5-.2 1-.4 1.5-.1.3 0 .4.3.5l3.3 1.5c1 .6 1.9 1.4 2.6 2.4.9 1.5 1 3.1.6 4.7-.3 1.1-.7 2.1-1.5 2.9-.6.6-1.4 1-2.2 1.3-.1 0-.2.1-.4.1l.3.209375.6.38125c.1.065625.2.134375.3.209375 1.2.9 2 2 2.4 3.4.2 1.1.1 2.3-.2 3.4-.4 1.4-.9 2.6-1.8 3.7-1.1 1.3-2.5 2-4.1 2.2-2.1.3-4.1.1-6.1-.2-.3-.1-.5 0-.6.3l-.3 1.215625-.6 2.46875c-.1.409375-.2.815625-.3 1.215625s-.1.5-.6.3c-.9-.2-1.9-.5-2.8-.7-.3-.1-.3-.2-.2-.4.4-1.7.8-3.4 1.3-5 0-.2.1-.3-.1-.4-.8-.2-1.6-.4-2.5-.6-.2.9-.5 1.8-.7 2.7s-.5 1.8-.7 2.7c-.1.2-.1.3-.4.2-1-.3-2-.5-3-.7-.3-.1-.3-.2-.2-.4.4-1.7.8-3.4 1.3-5 0-.1.1-.2.1-.4-2.3-.6-4.6-1.2-7-1.8.2-.4.3-.7.5-1.1.4-.9.8-1.8 1.1-2.6.1-.3.2-.3.5-.3.7.2 1.5.4 2.2.5.8.2 1.4-.2 1.5-.9 1.3-5.1 2.6-10.2 3.8-15.4.2-.8-.3-1.7-1.2-2s-1.8-.5-2.6-.7c-.2 0-.3-.1-.2-.3l.225-.840625.45-1.71875.156-.583125.594.151875 1.65.38125 1.65.41875 1.65.38125c.275.065625.55.134375.825.209375.3.1.4 0 .5-.3l.3-1.259375.6-2.48125c.1-.415625.2-.834375.3-1.259375.1-.3.2-.4.5-.3zm-1.9 21.5c-.2 1-.5 1.9-.7 2.9-.4 1.4-.7 2.8-1.1 4.3.06 0 .12.036.1584.0648l.0416.0352c1.6.4 3.3.9 5 1 1.2.1 2.3.1 3.4-.3 1.9-.6 2.7-3.1 1.6-4.7-.5-.8-1.3-1.3-2.1-1.8-1.8-1-3.9-1.4-5.9-1.8-.3-.1-.3 0-.4.3zm2.5-10.4c-.5 2.1-1 4.1-1.6 6.2-.1.2 0 .3.2.4.4.1.7.2 1.1.3 1.5.2 2.8.5 4.4.5.2 0 .7-.1 1.1-.2 1.9-.4 2.9-2.6 1.9-4.3-.5-.9-1.4-1.5-2.3-1.9-1.4-.6-2.8-.9-4.3-1.3-.3-.1-.4 0-.5.3z" fill="#fff"/></g></svg>