<?xml version="1.0" encoding="UTF-8"?>
<svg width="65px" height="65px" viewBox="0 0 65 65" version="1.1" xmlns="http://www.w3.org/2000/svg" xmlns:xlink="http://www.w3.org/1999/xlink">
    <title>Group</title>
    <g id="Symbols" stroke="none" stroke-width="1" fill="none" fill-rule="evenodd">
        <g id="Coin-/-Bitcoin-Outline" transform="translate(1.000000, 0.000000)">
            <g id="Group" transform="translate(-1.000000, 0.500000)">
                <ellipse id="Combined-Shape" stroke="#FFFFFF" stroke-width="3" fill="#FFFFFF" fill-rule="nonzero" cx="32.5" cy="32" rx="31" ry="30.5"></ellipse>
                <circle id="Combined-Shape" stroke="#979797" stroke-width="3" fill="#FFFFFF" fill-rule="nonzero" cx="32.5" cy="32" r="25"></circle>
                <path d="M31.9038215,15.5309859 C32.7640762,15.7788732 33.5383055,15.9441315 34.3985603,16.1093897 C34.6566367,16.1920188 34.6566367,16.2746479 34.5706112,16.4399061 C34.2265093,17.7619718 33.8824074,19.1666667 33.5383055,20.4887324 C33.5383055,20.5713615 33.5383055,20.6539906 33.4522801,20.8192488 C34.1404839,20.984507 34.9147132,21.1497653 35.602917,21.3150235 C35.6889424,21.3150235 35.7749679,21.1497653 35.8609934,21.0671362 C36.1190698,19.9929577 36.3771463,19.0014085 36.7212482,17.92723 L36.9793246,16.9356808 L36.9793246,16.9356808 C36.9793246,16.7704225 37.0653501,16.6877934 37.237401,16.7704225 C38.0976558,17.0183099 38.9579105,17.1835681 39.9041908,17.4314554 C39.9902163,17.4314554 39.9902163,17.5140845 40.0762417,17.5140845 C39.8181653,18.5882629 39.5600889,19.5798122 39.3020125,20.5713615 C39.215987,20.984507 39.1299615,21.3976526 38.9579105,21.8107981 C38.8718851,22.0586854 38.9579105,22.1413146 39.215987,22.2239437 C40.1622672,22.6370892 41.1085475,23.0502347 42.0548277,23.4633803 C42.9150825,23.9591549 43.6893118,24.6201878 44.2914901,25.4464789 C45.0657194,26.6859155 45.1517449,28.0079812 44.807643,29.3300469 C44.5495665,30.2389671 44.2054646,31.0652582 43.5172608,31.7262911 C43.0011079,32.2220657 42.3129041,32.5525822 41.6247003,32.8004695 C41.5386748,32.8004695 41.4526494,32.8830986 41.2805984,32.8830986 C41.6247003,33.1309859 41.9688022,33.2962441 42.3129041,33.5441315 C43.3452099,34.2877934 44.0334137,35.1967136 44.3775156,36.3535211 C44.5495665,37.2624413 44.463541,38.2539906 44.2054646,39.1629108 C43.8613627,40.3197183 43.4312353,41.3112676 42.657006,42.2201878 C41.7107258,43.2943662 40.5063691,43.87277 39.1299615,44.0380282 C37.3234265,44.2859155 35.602917,44.1206573 33.8824074,43.87277 C33.624331,43.7901408 33.4522801,43.87277 33.3662546,44.1206573 C33.0221527,45.442723 32.6780508,46.8474178 32.3339489,48.1694836 C32.2479234,48.5 32.2479234,48.5826291 31.817796,48.4173709 C31.0435667,48.2521127 30.1833119,48.0042254 29.4090827,47.8389671 C29.1510062,47.756338 29.1510062,47.6737089 29.2370317,47.5084507 C29.5811336,46.1037559 29.9252355,44.699061 30.3553629,43.3769953 C30.3553629,43.2117371 30.4413884,43.129108 30.2693374,43.0464789 C29.5811336,42.8812207 28.8929298,42.7159624 28.1187005,42.5507042 C27.9466496,43.2943662 27.6885731,44.0380282 27.5165222,44.7816901 C27.3444712,45.5253521 27.0863948,46.2690141 26.9143438,47.0126761 C26.8283184,47.1779343 26.8283184,47.2605634 26.5702419,47.1779343 C25.7099872,46.9300469 24.8497324,46.7647887 23.9894776,46.5995305 C23.7314012,46.5169014 23.7314012,46.4342723 23.8174267,46.2690141 C24.1615286,44.8643192 24.5056305,43.4596244 24.9357579,42.1375587 C24.9357579,42.0549296 25.0217834,41.9723005 25.0217834,41.8070423 C23.0431974,41.3112676 21.0646114,40.815493 19,40.3197183 C19.172051,39.9892019 19.2580764,39.7413146 19.4301274,39.4107981 C19.7742293,38.6671362 20.1183312,37.9234742 20.3764076,37.2624413 C20.4624331,37.014554 20.5484586,37.014554 20.806535,37.014554 C21.4087133,37.1798122 22.0969172,37.3450704 22.6990955,37.4276995 C23.3872993,37.5929577 23.9034522,37.2624413 23.9894776,36.6840376 C25.1078088,32.4699531 26.22614,28.2558685 27.2584457,23.9591549 C27.4304967,23.2981221 27.0003693,22.5544601 26.22614,22.3065728 C25.4519107,22.0586854 24.6776814,21.8934272 23.9894776,21.728169 C23.8174267,21.728169 23.7314012,21.6455399 23.8174267,21.4802817 C23.9894776,20.8743349 24.1615286,20.2316641 24.3335795,19.6012346 L24.532,18.884 L25.2798598,19.0626152 C25.9107133,19.2033907 26.5415668,19.3319249 27.1724203,19.4971831 C28.1187005,19.7450704 29.0649808,19.9103286 30.011261,20.158216 C30.2693374,20.2408451 30.3553629,20.158216 30.4413884,19.9103286 C30.7854903,18.5056338 31.1295922,17.1835681 31.4736941,15.7788732 C31.5597196,15.5309859 31.645745,15.4483568 31.9038215,15.5309859 Z M30.2693374,33.2962441 C30.0972865,34.1225352 29.83921,34.8661972 29.6671591,35.6924883 C29.3230572,36.8492958 29.0649808,38.0061033 28.7208788,39.2455399 C28.8069043,39.2455399 28.8929298,39.328169 28.8929298,39.328169 C30.2693374,39.6586854 31.7317705,40.071831 33.1942036,40.1544601 C34.2265093,40.2370892 35.1727896,40.2370892 36.1190698,39.9065728 C37.7535539,39.4107981 38.4417577,37.3450704 37.4954774,36.0230047 C37.0653501,35.3619718 36.3771463,34.9488263 35.6889424,34.5356808 C34.1404839,33.7093897 32.3339489,33.3788732 30.6134393,33.0483568 C30.3553629,32.9657277 30.3553629,33.0483568 30.2693374,33.2962441 Z M32.4199743,24.7028169 C31.989847,26.4380282 31.5597196,28.0906103 31.0435667,29.8258216 C30.9575412,29.9910798 31.0435667,30.0737089 31.2156177,30.156338 C31.5597196,30.2389671 31.817796,30.3215962 32.1618979,30.4042254 C33.4522801,30.5694836 34.5706112,30.8173709 35.9470189,30.8173709 C36.1190698,30.8173709 36.5491972,30.7347418 36.8932991,30.6521127 C38.5277832,30.3215962 39.3880379,28.5037559 38.5277832,27.099061 C38.0976558,26.3553991 37.3234265,25.8596244 36.5491972,25.529108 C35.3448405,25.0333333 34.1404839,24.785446 32.8501017,24.4549296 C32.5920253,24.3723005 32.5059998,24.4549296 32.4199743,24.7028169 Z" id="Combined-Shape" fill="#979797"></path>
            </g>
        </g>
    </g>
</svg>