<svg xmlns="http://www.w3.org/2000/svg" xmlns:xlink="http://www.w3.org/1999/xlink" version="1.1" style="" xml:space="preserve" width="1024" height="1024"><rect id="backgroundrect" width="100%" height="100%" x="0" y="0" fill="none" stroke="none"/>
<style type="text/css">
	.st0{fill:#46BEAE;}
	.st1{fill:#FFFFFF;}
</style>
<title>liquid_drop_icon</title>

<g class="currentLayer" style=""><title>Layer 1</title><g class="selected"><g id="ToW2Wx" class="">
	<path class="st0" d="M477.40410040780466,1010.9064952639559 c-163.3188015633773,-7.040390020970777 -314.7063434299993,-120.14578622743608 -361.03681939532174,-273.9630029899498 c-35.94873051489899,-118.92137057161507 -16.579802435750825,-233.25118243390136 41.37203037706047,-341.91807188801556 c42.30173892485959,-79.12786175743241 103.1976488057014,-143.71578760199043 166.7277329053074,-206.00793409188404 c55.472610018680335,-54.33344472705708 113.57939425612483,-106.21805814247215 164.5584129604428,-164.83695766490274 c8.212425505558821,-9.33616937563516 15.030288189418973,-19.896754407091326 28.356110707872908,-4.285454795373516 c64.45979264740508,75.9137706609023 141.62560211473138,139.73643672057213 210.42403465186564,211.67085650005617 c63.994938373505526,67.0367571562 120.39725693998497,138.8181249787064 153.40191038685344,226.2107924129306 c74.06678097466258,196.67176471624884 11.621356847488897,409.41398491514843 -191.51996084661704,512.7240558750457 C624.143099535431,1003.56000132903 563.8669953531221,1016.1102618011953 477.40410040780466,1010.9064952639559 z" id="svg_1"/>
</g><path class="st1" d="M676.671632486081,551.9036762880569 c6.198056985327412,-42.39539208280228 -23.397665119610977,-87.23961547724657 -80.88464365852272,-106.67721401340502 l15.030288189418973,-59.99636713522923 l-45.55571884215648,-11.172792859366666 l-14.565433915519417,58.15974365149772 c-11.93125969675527,-2.907987182574886 -24.327373667410093,-5.662922408172146 -36.413584788798545,-8.417857633769406 l14.720385340152603,-58.618899522430596 l-45.55571884215648,-11.172792859366666 l-15.030288189418973,59.99636713522923 l-82.43415790485457,-20.049806364068946 l-12.086211121388452,48.05831449097443 c0,0 33.77941057003439,7.652597848881279 33.00465344686847,8.111753719814155 c18.439219531349053,4.591558709328767 21.69319944864594,16.529611353583565 21.228345174746387,26.171884643173975 l-50.824067279684776,202.18163516744337 c-2.3242713694977795,5.509870451194521 -7.902522656292451,13.774676127986302 -20.763490900846833,10.713636988433791 c0.46485427389955664,0.612207827910502 -33.15960487150165,-8.111753719814155 -33.15960487150165,-8.111753719814155 l-22.467956571811868,51.42545754448219 l82.2792064802214,20.508962235001828 l-16.424851011117642,65.50623758642374 l45.4007674175233,11.172792859366666 l16.269899586484456,-64.7409778015356 c12.396113970654824,3.3671430535077627 24.482325092043276,6.428182193060273 36.258633364165355,9.183117418657535 l-16.269899586484456,64.43487388758037 l45.55571884215648,11.325844816344292 l16.424851011117642,-65.35318562944613 c77.63066374122585,14.386883955896803 136.66715652646943,-5.509870451194521 151.07763901735566,-63.05740627478174 c11.776308272122083,-46.98695079213105 1.2396113970654823,-81.4236411120968 -32.6947505976021,-106.67721401340502 C651.2595988462384,607.6145886279124 671.8681383224522,585.1159509522016 676.671632486081,551.9036762880569 zM583.3908748569033,692.5584247504946 c-13.945628216986677,55.86396429683334 -109.08580294176245,25.712728772241096 -139.92113644376633,18.213182880337445 l24.792227941309648,-99.02461616452374 C499.0972998564506,619.3995893151897 597.9563087724229,634.398681098997 583.3908748569033,692.5584247504946 zM597.3365030738901,547.7712734496611 c-12.86096824455438,50.81324971657169 -92.04114623211206,25.100520944330594 -117.76308272122083,18.825390708247944 l22.467956571811868,-89.6884467888886 C527.9182648382231,483.18334760510294 610.5073741677109,494.8152963354025 597.3365030738901,547.7712734496611 L597.3365030738901,547.7712734496611 z" id="svg_2"/></g></g>

</svg>
