<svg height="48" viewBox="0 0 47 48" width="47" xmlns="http://www.w3.org/2000/svg"><g fill="none"><path d="m18.08 47.57c-7.784-.338-15.005-5.72-17.215-13.047-1.713-5.663-.791-11.103 1.975-16.28 2.015-3.77 4.92-6.844 7.949-9.81 2.647-2.59 5.416-5.057 7.853-7.85.389-.444.718-.947 1.353-.204 3.074 3.618 6.754 6.651 10.033 10.077 3.05 3.19 5.743 6.612 7.315 10.768 3.535 9.368.556 19.496-9.133 24.414-3.13 1.587-6.005 2.178-10.128 1.931z" fill="#00a478" transform="translate(4.565)"/><g fill="#fff" transform="translate(12.613 17.584)"><path d="m8.271 8.792v-4.685h-6.808v-4.107h19.023v4.165h-6.807v4.627z"/><path d="m12.072 7.805c7.006 0 10.634 1.854 11.071 2.452-.437.598-4.003 1.496-11.07 1.496-7.006 0-10.634-.898-11.072-1.496.438-.658 4.066-2.452 11.071-2.452zm0-.478c-6.692 0-12.072 1.316-12.072 2.93 0 1.615 5.38 2.931 12.072 2.931 6.693 0 12.072-1.316 12.072-2.93 0-1.615-5.38-2.931-12.072-2.931z"/><path d="m13.901 10.943v-3.492c-.975-.062-2.02-.124-3.066-.124-.975 0-1.881 0-2.787.062v3.492c.836 0 1.812.062 2.787.062 1.045.063 2.09.063 3.066 0zm-3.066 2.362c-.975 0-1.881 0-2.787-.058v8.733h5.853v-8.792c-.975.059-2.02.117-3.066.117z"/></g></g></svg>