<svg height="48" viewBox="0 0 48 48" width="48" xmlns="http://www.w3.org/2000/svg" xmlns:xlink="http://www.w3.org/1999/xlink"><linearGradient id="a" x1="50%" x2="50%" y1="0%" y2="100%"><stop offset="0" stop-color="#0a56bc"/><stop offset="1" stop-color="#1099ff"/></linearGradient><g fill="none"><path d="m18.08 47.57c-7.784-.338-15.005-5.72-17.215-13.047-1.713-5.663-.791-11.103 1.975-16.28 2.015-3.77 4.92-6.844 7.949-9.81 2.647-2.59 5.416-5.057 7.853-7.85.389-.444.718-.947 1.353-.204 3.074 3.618 6.754 6.651 10.033 10.077 3.05 3.19 5.743 6.612 7.315 10.768 3.535 9.368.556 19.496-9.133 24.414-3.13 1.587-6.005 2.178-10.128 1.931z" fill="url(#a)" transform="translate(4.804)"/><path d="m26.343 38.831c.468 0 1.418-.093 2.85-.28 1.076-.14 1.881-.363 2.414-.671.861-.495 1.54-1.166 2.036-2.015.496-.85.744-1.805.744-2.869 0-1.306-.348-2.39-1.046-3.253-.697-.863-1.785-1.472-3.264-1.827.974-.335 1.713-.793 2.218-1.371.758-.868 1.137-1.908 1.137-3.12 0-1.447-.53-2.66-1.593-3.639-1.062-.98-2.585-1.47-4.57-1.47h-11.905v20.515zm-2.138-12.455h-2.987v-3.663h3.032c1.042 0 1.772.158 2.191.474.42.316.63.756.63 1.318 0 .606-.21 1.07-.63 1.39s-1.165.481-2.236.481zm.438 8.06h-3.425v-3.664h3.41c1.177 0 2 .163 2.47.487.47.325.704.755.704 1.29 0 .575-.237 1.033-.711 1.375-.475.34-1.29.511-2.448.511z" fill="#fff" transform="translate(.414)"/></g></svg>