<svg height="38" viewBox="0 0 32 38" width="32" xmlns="http://www.w3.org/2000/svg"><g fill="none" fill-rule="evenodd" transform="translate(-2 1)"><path d="m17.2756515 35.9590854c-5.9857852-.2545188-11.53699464-4.3235144-13.236101-9.8612267-1.31679322-4.2816454-.60783811-8.3941626 1.51845914-12.3078025 1.54856701-2.8492885 3.78166199-5.17301224 6.11076136-7.41575268 2.0354055-1.95681996 4.1645431-3.82218943 6.0380479-5.93326321.2988064-.33605298.5515989-.71617848 1.0395736-.15425383 2.3637518 2.73469997 5.1927553 5.0275729 7.7138633 7.61683354 2.3455735 2.41131788 4.4150634 4.99837488 5.6239228 8.14019468 2.7182293 7.0813524.4271909 14.7378512-7.0213824 18.4553684-2.4063572 1.1998744-4.6167293 1.6466596-7.7871447 1.4599023z" fill="#1e3b1c" fill-rule="nonzero" stroke="#0fff00"/><g transform="translate(9.5625 12.184615)"><path d="m0 0h17.4375v17.1692308h-17.4375z"/><path d="m13.8046875 9.3h-4.359375v4.2923077h-1.453125v-4.2923077h-4.359375v-1.43076923h4.359375v-4.29230769h1.453125v4.29230769h4.359375z" fill="#0fff00"/></g></g></svg>