<svg viewBox="0 0 524.81 653.46" xmlns="http://www.w3.org/2000/svg"><path d="m244.7 652.72c-105.37-4.62-203.09-78.48-233-179-23.18-77.72-10.7-152.37 26.73-223.41 27.26-51.72 66.57-93.9 107.57-134.61 35.83-35.52 73.31-69.38 106.29-107.7 5.26-6.1 9.71-13 18.3-2.8 41.61 49.64 91.41 91.26 135.79 138.26 41.29 43.77 77.72 90.73 99 147.76 47.85 128.54 7.52 267.52-123.6 335-42.36 21.78-81.27 29.89-137.08 26.5z" fill="#46beae"/><path d="m373.37 352.9c4-27.7-15.13-57-52.21-69.69l9.73-39.21-29.37-7.28-9.41 38c-7.72-1.91-15.65-3.72-23.53-5.5l9.5-38.29-29.35-7.28-9.73 39.2-53.22-13.1-7.78 31.36s21.79 5 21.33 5.27c11.89 3 14 10.82 13.7 17.06l-32.78 132.13c-1.45 3.61-5.13 9-13.44 7 .29.42-21.35-5.3-21.35-5.3l-14.53 33.62 53.15 13.37-10.6 42.79 29.33 7.28 10.49-42.28q12 3.26 23.4 6l-10.45 42.06 29.37 7.35 10.6-42.71c50.07 9.41 88.15-3.57 97.5-41.24 7.63-30.74.75-53.21-21.06-69.67 14.28-4.55 27.55-19.32 30.71-40.94zm-60.23 91.89c-9 36.46-70.43 16.83-90.34 11.92l16-64.65c19.94 4.94 83.76 14.7 74.34 52.73zm9-94.6c-8.28 33.17-59.39 16.39-76 12.27l14.54-58.63c16.61 4.12 70 11.76 61.46 46.36z" fill="#fff"/></svg>