<?xml version="1.0" encoding="UTF-8"?>
<svg width="200px" height="76px" viewBox="0 0 200 76" version="1.1" xmlns="http://www.w3.org/2000/svg" xmlns:xlink="http://www.w3.org/1999/xlink">
    <title>LOGO</title>
    <g id="Dashboard-UI" stroke="none" stroke-width="1" fill="none" fill-rule="evenodd">
        <g id="User-Settings" transform="translate(-83.000000, -39.000000)" fill-rule="nonzero">
            <g id="LOGO" transform="translate(83.000000, 39.000000)">
                <path d="M52.9238779,14.2329938 L60.5282571,14.2329938 L60.5282571,58.4459336 C60.5282571,67.0875536 54.2893423,74.7823915 45.6653565,75.8631523 C42.8928814,76.2162968 40.0756003,75.88341 37.4635866,74.8940404 C37.3782451,74.8627787 37.4141783,74.7288001 37.5040115,74.7288001 C37.5938447,74.7288001 37.813936,74.7288001 37.9531774,74.7288001 L37.9531774,74.7288001 C37.6522363,74.7288001 37.3512951,74.7288001 37.0548456,74.7288001 L37.0189123,74.7288001 C30.6321303,72.1158083 26.4585032,65.9335044 26.4454213,59.0667011 L26.4454213,40.5865855 C26.4443105,40.5645028 26.4522798,40.5428894 26.4675781,40.5268336 C26.4828764,40.5107778 26.5041521,40.5016982 26.5263962,40.5017324 L33.9825506,40.5017324 C34.0296834,40.5017324 34.0678921,40.5397224 34.0678921,40.5865855 L34.0678921,58.6558334 C34.0678921,63.4611994 37.5264698,67.7797764 42.323562,68.3603504 C45.0080259,68.6933728 47.7070854,67.864346 49.7349032,66.0839277 C51.7627211,64.3035095 52.9240807,61.7430993 52.9238779,59.0533033 L52.9238779,59.0533033 L52.9238779,14.2329938 Z M86.8538723,17.4172187 C85.7623991,8.84258795 78.0232701,2.63491257 69.336401,2.63491257 L43.4779184,2.63491257 L43.4779184,0 L43.4150352,0 L37.2794286,6.37291566 C37.2524332,6.40696724 37.2524332,6.45497887 37.2794286,6.48903045 L43.4150352,12.8619461 L43.4779184,12.8619461 L43.4779184,10.2091697 L69.9787083,10.2091697 C72.6840906,10.2100889 75.258843,11.3659573 77.0486689,13.3830455 C78.8384947,15.4001338 79.6710752,18.0842427 79.3348346,20.753286 C78.7509189,25.5229243 74.3940094,28.9617085 69.5789506,28.9617085 L64.6381254,28.9617085 C64.5909926,28.9617085 64.5527838,28.9996986 64.5527838,29.0465616 L64.5527838,36.4377147 C64.5527838,36.4845778 64.5909926,36.5225678 64.6381254,36.5225678 L69.9831999,36.5225678 C76.8895281,36.5096851 83.107417,32.3599436 85.7354491,26.0097133 C85.737378,25.9978813 85.737378,25.9858176 85.7354491,25.9739856 L85.7354491,25.9739856 C85.7354491,25.8489389 85.7354491,25.7372901 85.7354491,25.6122434 L85.7354491,25.0361354 C85.7354491,25.2058416 85.7354491,25.3666159 85.7354491,25.5452541 C85.7354491,25.6345732 85.8657072,25.6703008 85.8971489,25.5854477 C86.8927619,22.9838087 87.2215496,20.1767138 86.8538723,17.4172187 Z M43.4779184,39.1708782 L43.5408016,39.1708782 L49.6719166,32.7979626 C49.6989119,32.763911 49.6989119,32.7158994 49.6719166,32.6818478 L43.5408016,26.3133981 L43.4779184,26.3133981 L43.4779184,28.9617085 L17.0310284,28.9617085 C14.3265334,28.9606296 11.7526062,27.8053637 9.96294104,25.7893109 C8.17327591,23.7732581 7.34005959,21.0903863 7.67490208,18.4220582 C8.25881779,13.6524199 12.6157273,10.2091697 17.4307861,10.2091697 L33.8073759,10.2091697 C33.8295857,10.2103985 33.8513235,10.2024747 33.8674717,10.187264 C33.8836199,10.1720533 33.8927518,10.1508994 33.8927174,10.1287826 L33.8927174,2.73316355 C33.8927174,2.68630047 33.8545087,2.64831043 33.8073759,2.64831043 L17.0310284,2.64831043 C10.1247002,2.66119312 3.90681131,6.81093461 1.27877923,13.161165 C1.27659944,13.1744752 1.27659944,13.1880484 1.27877923,13.2013586 C1.27877923,13.5229072 1.27877923,13.831058 1.27877923,14.1392088 C1.27877923,13.9695026 1.27877923,13.8042623 1.27877923,13.6300901 C1.27877923,13.5363051 1.14852111,13.5005775 1.11707949,13.5898965 C0.118129555,16.1860026 -0.218288452,18.9877624 0.137897763,21.7447276 C1.22937097,30.3148924 8.98197493,36.5225678 17.6598607,36.5225678 L43.4779184,36.5225678 L43.4779184,39.1708782 Z" id="Shape" fill="#0FFF00"></path>
                <g id="Group-2" transform="translate(104.000000, 9.000000)" fill="#FFFFFF">
                    <path d="M5.70767869,33.9141962 L5.70767869,3.60952323 C5.70767869,3.56472583 5.67163052,3.52841035 5.62716284,3.52841035 L0.084988946,3.52841035 C0.039013577,3.52614704 0.0022466513,3.48910749 0,3.4427912 L0,0.0856192596 C0.0022466513,0.0393029771 0.039013577,0.00226341984 0.084988946,1.09325356e-07 L15.8750405,1.09325356e-07 C15.9210159,0.00226341984 15.9577828,0.0393029771 15.9600294,0.0856192596 L15.9600294,3.4427912 C15.9577828,3.48910749 15.9210159,3.52614704 15.8750405,3.52841035 L10.5073176,3.52841035 C10.4851995,3.52717052 10.4635515,3.53516578 10.44747,3.55051384 C10.4313886,3.56586191 10.4222944,3.58720675 10.4223286,3.60952323 L10.4223286,33.9141962 C10.4223286,33.9614823 10.3842778,33.9998153 10.3373397,33.9998153 L5.79266763,33.9998153 C5.74669226,33.997552 5.70992534,33.9605124 5.70767869,33.9141962 L5.70767869,33.9141962 Z M19.2075018,33.9141962 L19.2075018,0.0856192596 C19.2075018,0.0383331086 19.2455526,1.09325356e-07 19.2924907,1.09325356e-07 L26.5389167,1.09325356e-07 C29.0378899,1.09325356e-07 31.0179832,0.386037331 32.4791967,1.15811177 C33.9068601,1.8885383 35.0204029,3.119313 35.6103684,4.61892795 C36.2785582,6.45869632 36.5883835,8.41099296 36.5228813,10.3689298 L36.5228813,22.873832 C36.5777037,24.9436796 36.2594361,27.0063838 35.5835297,28.9618043 C35.0262226,30.5281895 33.9526165,31.8546997 32.5418201,32.7200343 C31.1551584,33.5702175 29.2794374,33.995309 26.9146573,33.995309 L19.3103831,33.995309 C19.2857115,34.0006736 19.2599493,33.9947135 19.2400728,33.9790426 C19.2201963,33.9633718 19.2082621,33.9396116 19.2075018,33.9141962 L19.2075018,33.9141962 Z M23.9176786,30.5119615 C23.9164479,30.5342435 23.9243843,30.5560521 23.9396194,30.5722528 C23.9548545,30.5884536 23.9760423,30.5975807 23.9981945,30.5975807 L26.5836477,30.5975807 C28.3072831,30.5975807 29.5284401,30.2626145 30.2471186,29.5926822 C31.0248222,28.8065045 31.4922263,27.7622624 31.5622107,26.6545935 C31.7276712,25.1071863 31.8038421,23.5514088 31.7903389,21.9951092 L31.7903389,10.9547451 C31.8176438,9.5201436 31.7052789,8.08630059 31.4548562,6.67378756 C31.3132156,5.70914883 30.7864186,4.84472112 29.9966248,4.28095762 C29.2481257,3.78226362 28.0687177,3.53141454 26.4584008,3.52841035 L23.9981945,3.52841035 C23.9768404,3.52841035 23.9563608,3.53695615 23.9412612,3.55216777 C23.9261615,3.56737938 23.9176786,3.58801076 23.9176786,3.60952323 L23.9176786,30.5119615 Z M41.1659615,33.9141962 L41.1659615,0.0856192596 C41.1659615,0.0400384407 41.2012948,0.00239905832 41.2464774,1.09325356e-07 L54.1603241,1.09325356e-07 C54.2072622,1.09325356e-07 54.245313,0.0383331086 54.245313,0.0856192596 L54.245313,3.4427912 C54.245313,3.49007736 54.2072622,3.52841035 54.1603241,3.52841035 L45.9566543,3.52841035 C45.9345362,3.52717052 45.9128882,3.53516578 45.8968067,3.55051384 C45.8807252,3.56586191 45.8716311,3.58720675 45.8716653,3.60952323 L45.8716653,14.6904438 C45.8716653,14.7377299 45.9097162,14.7760629 45.9566543,14.7760629 L52.5768458,14.7760629 C52.5997636,14.7747403 52.6221521,14.7833353 52.638384,14.7996876 C52.6546159,14.8160398 52.6631477,14.8385944 52.6618348,14.8616821 L52.6618348,18.0476157 C52.6631477,18.0707035 52.6546159,18.093258 52.638384,18.1096102 C52.6221521,18.1259625 52.5997636,18.1345575 52.5768458,18.1332349 L45.9566543,18.1332349 C45.9337365,18.1319123 45.911348,18.1405073 45.8951161,18.1568595 C45.8788842,18.1732118 45.8703524,18.1957663 45.8716653,18.218854 L45.8716653,30.5119615 C45.8703524,30.5350492 45.8788842,30.5576038 45.8951161,30.573956 C45.911348,30.5903083 45.9337365,30.5989033 45.9566543,30.5975807 L54.245313,30.5975807 C54.2912884,30.599844 54.3280553,30.6368835 54.330302,30.6831998 L54.330302,33.9141962 C54.3280553,33.9605124 54.2912884,33.997552 54.245313,33.9998153 L41.2464774,33.9998153 C41.2012948,33.9974164 41.1659615,33.959777 41.1659615,33.9141962 L41.1659615,33.9141962 Z M56.0837581,33.8826523 L63.066271,16.2360948 C63.0749757,16.2144167 63.0749757,16.1901788 63.066271,16.1685007 L56.2045319,0.121669428 C56.1923896,0.0953242067 56.1943341,0.0645739107 56.2096966,0.0399938007 C56.225059,0.0154136906 56.2517441,0.000356348725 56.2805746,0 L60.4718716,0 C60.5060412,0 60.5365245,0.0216210514 60.5479144,0.0540753621 L65.598047,11.8154428 C65.6093097,11.8480464 65.6398224,11.8698963 65.6740897,11.8698963 C65.708357,11.8698963 65.7388698,11.8480464 65.7501325,11.8154428 L70.3216431,0.0540753621 C70.3356541,0.0217210235 70.3671245,0.000585195965 70.402159,0 L74.593456,0 C74.6222865,0.000356348725 74.6489716,0.0154136906 74.664334,0.0399938007 C74.6796965,0.0645739107 74.6816409,0.0953242067 74.6694987,0.121669428 L67.6333086,16.5470275 C67.6246039,16.5687056 67.6246039,16.5929434 67.6333086,16.6146215 L74.9915621,33.8826523 C75.004302,33.9084331 75.0025174,33.9390861 74.9868733,33.9631898 C74.9712292,33.9872935 74.9440715,34.0012334 74.9155193,33.999914 L70.7242224,33.999914 C70.6900528,33.999914 70.6595694,33.9781944 70.6481796,33.9457401 L65.2446719,21.37775 C65.2313732,21.3460643 65.200541,21.3254743 65.1663926,21.3254743 C65.1322442,21.3254743 65.101412,21.3460643 65.0881133,21.37775 L60.4316137,33.927715 C60.4206309,33.961134 60.3904627,33.9843749 60.3555709,33.9862965 L56.1598009,33.9862965 C56.1353727,33.9842688 56.113003,33.971715 56.0984339,33.9518578 C56.0838648,33.9320005 56.0785152,33.9067734 56.0837581,33.8826523 L56.0837581,33.8826523 Z" id="Shape"></path>
                    <g id="Dashboard" transform="translate(1.188000, 41.040000)" opacity="0.596237909">
                        <path d="M0,12.96 L0,0.36 L2.646,0.36 C4.71,0.36 6.237,0.924 7.227,2.052 C8.217,3.18 8.712,4.716 8.712,6.66 C8.712,8.604 8.217,10.14 7.227,11.268 C6.237,12.396 4.71,12.96 2.646,12.96 L0,12.96 Z M1.512,11.574 L2.61,11.574 C3.714,11.574 4.599,11.37 5.265,10.962 C5.931,10.554 6.414,9.984 6.714,9.252 C7.014,8.52 7.164,7.656 7.164,6.66 C7.164,5.664 7.014,4.8 6.714,4.068 C6.414,3.336 5.931,2.766 5.265,2.358 C4.599,1.95 3.714,1.746 2.61,1.746 L1.512,1.746 L1.512,11.574 Z" id="Shape"></path>
                        <path d="M14.256,13.176 C13.548,13.176 12.96,13.05 12.492,12.798 C12.024,12.546 11.676,12.213 11.448,11.799 C11.22,11.385 11.106,10.932 11.106,10.44 C11.106,9.528 11.439,8.835 12.105,8.361 C12.771,7.887 13.662,7.65 14.778,7.65 L17.226,7.65 L17.226,7.47 C17.226,5.91 16.512,5.13 15.084,5.13 C14.508,5.13 14.025,5.256 13.635,5.508 C13.245,5.76 12.996,6.156 12.888,6.696 L11.34,6.696 C11.4,6.096 11.601,5.58 11.943,5.148 C12.285,4.716 12.726,4.386 13.266,4.158 C13.806,3.93 14.412,3.816 15.084,3.816 C16.356,3.816 17.283,4.149 17.865,4.815 C18.447,5.481 18.738,6.366 18.738,7.47 L18.738,12.96 L17.442,12.96 L17.316,11.574 L17.19,11.574 C16.926,12.006 16.575,12.381 16.137,12.699 C15.699,13.017 15.072,13.176 14.256,13.176 Z M14.526,11.844 C15.102,11.844 15.591,11.706 15.993,11.43 C16.395,11.154 16.701,10.788 16.911,10.332 C17.121,9.876 17.226,9.378 17.226,8.838 L14.904,8.838 C14.088,8.838 13.515,8.976 13.185,9.252 C12.855,9.528 12.69,9.894 12.69,10.35 C12.69,10.818 12.846,11.184 13.158,11.448 C13.47,11.712 13.926,11.844 14.526,11.844 Z" id="Shape"></path>
                        <path d="M25.902,13.176 C24.762,13.176 23.841,12.909 23.139,12.375 C22.437,11.841 22.044,11.106 21.96,10.17 L23.526,10.17 C23.598,10.662 23.841,11.064 24.255,11.376 C24.669,11.688 25.23,11.844 25.938,11.844 C26.61,11.844 27.111,11.7 27.441,11.412 C27.771,11.124 27.936,10.794 27.936,10.422 C27.936,9.918 27.738,9.573 27.342,9.387 C26.946,9.201 26.352,9.06 25.56,8.964 C24.612,8.856 23.826,8.598 23.202,8.19 C22.578,7.782 22.266,7.17 22.266,6.354 C22.266,5.622 22.572,5.016 23.184,4.536 C23.796,4.056 24.63,3.816 25.686,3.816 C26.73,3.816 27.552,4.053 28.152,4.527 C28.752,5.001 29.094,5.676 29.178,6.552 L27.684,6.552 C27.648,6.12 27.441,5.775 27.063,5.517 C26.685,5.259 26.214,5.13 25.65,5.13 C25.062,5.13 24.606,5.241 24.282,5.463 C23.958,5.685 23.796,5.976 23.796,6.336 C23.796,6.696 23.979,6.993 24.345,7.227 C24.711,7.461 25.29,7.614 26.082,7.686 C26.706,7.758 27.276,7.878 27.792,8.046 C28.308,8.214 28.719,8.478 29.025,8.838 C29.331,9.198 29.484,9.702 29.484,10.35 C29.496,10.89 29.349,11.373 29.043,11.799 C28.737,12.225 28.314,12.561 27.774,12.807 C27.234,13.053 26.61,13.176 25.902,13.176 Z" id="Path"></path>
                        <path d="M32.706,12.96 L32.706,0 L34.218,0 L34.218,5.382 C34.458,4.926 34.854,4.551 35.406,4.257 C35.958,3.963 36.564,3.816 37.224,3.816 C38.316,3.816 39.147,4.146 39.717,4.806 C40.287,5.466 40.572,6.39 40.572,7.578 L40.572,12.96 L39.06,12.96 L39.06,7.776 C39.06,6.972 38.865,6.348 38.475,5.904 C38.085,5.46 37.542,5.238 36.846,5.238 C36.366,5.238 35.928,5.346 35.532,5.562 C35.136,5.778 34.818,6.096 34.578,6.516 C34.338,6.936 34.218,7.452 34.218,8.064 L34.218,12.96 L32.706,12.96 Z" id="Path"></path>
                        <path d="M47.718,13.176 C47.034,13.176 46.455,13.035 45.981,12.753 C45.507,12.471 45.156,12.084 44.928,11.592 L44.82,11.592 L44.658,12.96 L43.416,12.96 L43.416,0 L44.928,0 L44.928,5.31 C45.156,4.914 45.513,4.566 45.999,4.266 C46.485,3.966 47.058,3.816 47.718,3.816 C48.486,3.816 49.164,3.996 49.752,4.356 C50.34,4.716 50.802,5.244 51.138,5.94 C51.474,6.636 51.642,7.482 51.642,8.478 C51.642,9.486 51.474,10.341 51.138,11.043 C50.802,11.745 50.337,12.276 49.743,12.636 C49.149,12.996 48.474,13.176 47.718,13.176 Z M47.52,11.736 C48.276,11.736 48.897,11.469 49.383,10.935 C49.869,10.401 50.112,9.588 50.112,8.496 C50.112,7.404 49.869,6.591 49.383,6.057 C48.897,5.523 48.276,5.256 47.52,5.256 C46.764,5.256 46.14,5.523 45.648,6.057 C45.156,6.591 44.91,7.404 44.91,8.496 C44.91,9.588 45.156,10.401 45.648,10.935 C46.14,11.469 46.764,11.736 47.52,11.736 Z" id="Shape"></path>
                        <path d="M58.212,13.176 C57.372,13.176 56.628,12.984 55.98,12.6 C55.332,12.216 54.822,11.673 54.45,10.971 C54.078,10.269 53.892,9.444 53.892,8.496 C53.892,7.548 54.078,6.723 54.45,6.021 C54.822,5.319 55.332,4.776 55.98,4.392 C56.628,4.008 57.372,3.816 58.212,3.816 C59.052,3.816 59.796,4.008 60.444,4.392 C61.092,4.776 61.602,5.319 61.974,6.021 C62.346,6.723 62.532,7.548 62.532,8.496 C62.532,9.444 62.346,10.269 61.974,10.971 C61.602,11.673 61.092,12.216 60.444,12.6 C59.796,12.984 59.052,13.176 58.212,13.176 Z M58.212,11.736 C58.728,11.736 59.196,11.622 59.616,11.394 C60.036,11.166 60.369,10.812 60.615,10.332 C60.861,9.852 60.984,9.24 60.984,8.496 C60.984,7.752 60.861,7.14 60.615,6.66 C60.369,6.18 60.036,5.826 59.616,5.598 C59.196,5.37 58.728,5.256 58.212,5.256 C57.708,5.256 57.246,5.37 56.826,5.598 C56.406,5.826 56.07,6.18 55.818,6.66 C55.566,7.14 55.44,7.752 55.44,8.496 C55.44,9.612 55.71,10.431 56.25,10.953 C56.79,11.475 57.444,11.736 58.212,11.736 Z" id="Shape"></path>
                        <path d="M68.256,13.176 C67.548,13.176 66.96,13.05 66.492,12.798 C66.024,12.546 65.676,12.213 65.448,11.799 C65.22,11.385 65.106,10.932 65.106,10.44 C65.106,9.528 65.439,8.835 66.105,8.361 C66.771,7.887 67.662,7.65 68.778,7.65 L71.226,7.65 L71.226,7.47 C71.226,5.91 70.512,5.13 69.084,5.13 C68.508,5.13 68.025,5.256 67.635,5.508 C67.245,5.76 66.996,6.156 66.888,6.696 L65.34,6.696 C65.4,6.096 65.601,5.58 65.943,5.148 C66.285,4.716 66.726,4.386 67.266,4.158 C67.806,3.93 68.412,3.816 69.084,3.816 C70.356,3.816 71.283,4.149 71.865,4.815 C72.447,5.481 72.738,6.366 72.738,7.47 L72.738,12.96 L71.442,12.96 L71.316,11.574 L71.19,11.574 C70.926,12.006 70.575,12.381 70.137,12.699 C69.699,13.017 69.072,13.176 68.256,13.176 Z M68.526,11.844 C69.102,11.844 69.591,11.706 69.993,11.43 C70.395,11.154 70.701,10.788 70.911,10.332 C71.121,9.876 71.226,9.378 71.226,8.838 L68.904,8.838 C68.088,8.838 67.515,8.976 67.185,9.252 C66.855,9.528 66.69,9.894 66.69,10.35 C66.69,10.818 66.846,11.184 67.158,11.448 C67.47,11.712 67.926,11.844 68.526,11.844 Z" id="Shape"></path>
                        <path d="M75.924,12.96 L75.924,11.664 L78.21,11.664 L78.21,5.778 C78.21,5.478 78.066,5.328 77.778,5.328 L76.158,5.328 L76.158,4.032 L78.336,4.032 C78.732,4.032 79.05,4.14 79.29,4.356 C79.53,4.572 79.65,4.89 79.65,5.31 L79.65,5.688 L79.722,5.688 C79.866,5.088 80.139,4.626 80.541,4.302 C80.943,3.978 81.504,3.816 82.224,3.816 L83.862,3.816 L83.862,5.418 L82.008,5.418 C81.276,5.418 80.712,5.661 80.316,6.147 C79.92,6.633 79.722,7.254 79.722,8.01 L79.722,11.664 L82.53,11.664 L82.53,12.96 L75.924,12.96 Z" id="Path"></path>
                        <path d="M90.306,13.176 C89.55,13.176 88.875,12.996 88.281,12.636 C87.687,12.276 87.222,11.745 86.886,11.043 C86.55,10.341 86.382,9.486 86.382,8.478 C86.382,7.482 86.55,6.636 86.886,5.94 C87.222,5.244 87.687,4.716 88.281,4.356 C88.875,3.996 89.55,3.816 90.306,3.816 C91.014,3.816 91.599,3.954 92.061,4.23 C92.523,4.506 92.868,4.866 93.096,5.31 L93.096,0 L94.608,0 L94.608,12.96 L93.366,12.96 L93.204,11.574 L93.096,11.574 C92.856,12.066 92.502,12.456 92.034,12.744 C91.566,13.032 90.99,13.176 90.306,13.176 Z M90.504,11.736 C91.26,11.736 91.884,11.469 92.376,10.935 C92.868,10.401 93.114,9.588 93.114,8.496 C93.114,7.404 92.868,6.591 92.376,6.057 C91.884,5.523 91.26,5.256 90.504,5.256 C89.748,5.256 89.127,5.523 88.641,6.057 C88.155,6.591 87.912,7.404 87.912,8.496 C87.912,9.588 88.155,10.401 88.641,10.935 C89.127,11.469 89.748,11.736 90.504,11.736 Z" id="Shape"></path>
                    </g>
                </g>
            </g>
        </g>
    </g>
</svg>